PathFileType	4	(X/Y/Z)	c:/Users/goper/Files/vsCode/490R/osim_files/C11/C11_Static_03.trc
DataRate	CameraRate	NumFrames	NumMarkers	Units                	OrigDataRate	OrigDataStartFrame	OrigNumFrames
120.00	120.00	7	36	mm	120.0	269	536
                Frame#	Time	LPSIS			LASIS			LTH1			LTH2			LTH3			LTH4			LLFE			LMFE			LSH1			LSH2			LSH3			LSH4			LLMAL			LMMAL			LCAL			LMTP5			LTOE			LMTP1			RPSIS			RASIS			RTH1			RTH2			RTH3			RTH4			RLFE			RMFE			RSH1			RSH2			RSH3			RSH4			RLMAL			RMMAL			RCAL			RMTP1			RTOE			RMTP5		
		X1	Y1	Z1	X2	Y2	Z2	X3	Y3	Z3	X4	Y4	Z4	X5	Y5	Z5	X6	Y6	Z6	X7	Y7	Z7	X8	Y8	Z8	X9	Y9	Z9	X10	Y10	Z10	X11	Y11	Z11	X12	Y12	Z12	X13	Y13	Z13	X14	Y14	Z14	X15	Y15	Z15	X16	Y16	Z16	X17	Y17	Z17	X18	Y18	Z18	X19	Y19	Z19	X20	Y20	Z20	X21	Y21	Z21	X22	Y22	Z22	X23	Y23	Z23	X24	Y24	Z24	X25	Y25	Z25	X26	Y26	Z26	X27	Y27	Z27	X28	Y28	Z28	X29	Y29	Z29	X30	Y30	Z30	X31	Y31	Z31	X32	Y32	Z32	X33	Y33	Z33	X34	Y34	Z34	X35	Y35	Z35	X36	Y36	Z36

269	2.23333	-381.10574	1019.40326	442.55695	-202.96652	1005.67377	377.49701	-332.66910	635.81354	298.22147	-331.45630	588.23560	293.29132	-273.34070	633.00476	284.48615	-280.13849	586.77203	284.59631	-311.18329	515.27075	280.02686	-293.49957	501.43463	388.55185	-368.92563	412.63257	267.51468	-368.66803	367.88547	263.19028	-307.98251	408.82419	255.39835	-316.37689	364.38016	253.42081	-343.23132	96.32677	290.28458	-306.35913	110.51460	381.09061	-397.36691	59.21651	348.94171	-234.61449	40.14128	247.56270	-156.90221	58.12561	309.73825	-192.68359	45.63710	359.39069	-378.48059	1032.39734	526.08813	-220.97569	997.78882	611.95801	-321.63104	651.85376	673.76349	-319.27499	607.76630	673.29675	-258.90790	647.34723	668.10095	-266.84641	604.90900	669.24976	-299.47104	518.55029	664.14941	-321.36221	490.04013	552.88153	-368.74557	413.20959	687.92529	-363.54761	367.17029	690.44006	-306.55530	412.16589	684.74500	-310.50272	365.24274	690.30737	-339.54562	97.90221	667.15656	-311.38382	105.68893	572.61646	-400.29608	59.66525	615.05634	-184.39067	49.52347	597.85297	-181.51009	62.20683	647.87134	-223.00790	39.08078	708.23566
270	2.24167	-380.73093	1019.42578	442.55362	-202.54277	1005.55127	377.69543	-332.53455	635.81110	298.35788	-331.31866	588.23175	293.42166	-273.17813	632.95996	284.65039	-280.00085	586.74567	284.71906	-311.07880	515.26526	280.11331	-293.40607	501.34262	388.65051	-368.84009	412.61414	267.65024	-368.62210	367.88943	263.27759	-307.94571	408.81564	255.46935	-316.32736	364.37747	253.51772	-343.21866	96.31378	290.31613	-306.34595	110.46961	381.14240	-396.48407	58.97244	349.29312	-234.64844	40.09247	247.58195	-156.91139	58.07686	309.76816	-192.68985	45.55394	359.42041	-378.23871	1032.43652	526.07617	-220.94344	997.72778	612.15314	-321.78854	651.84894	673.83008	-319.41614	607.76880	673.39227	-259.08911	647.30621	668.30646	-267.00528	604.88800	669.38074	-299.63763	518.53302	664.23798	-321.40701	490.04916	552.96942	-368.90988	413.19113	687.97198	-363.66992	367.13879	690.49512	-306.73819	412.13370	684.83545	-310.67249	365.25394	690.38782	-339.53979	97.87016	667.21564	-311.39096	105.66588	572.63831	-400.29575	59.61568	615.11072	-184.42439	49.61008	597.77374	-181.52702	62.13601	647.90704	-223.02681	39.03020	708.27795
271	2.25000	-380.32660	1019.39813	442.53674	-202.08545	1005.48615	377.89722	-332.36798	635.79224	298.51016	-331.16129	588.23560	293.52728	-273.02823	632.92944	284.78140	-279.84799	586.70172	284.84891	-310.96378	515.23700	280.20844	-293.32507	501.26495	388.71695	-368.78836	412.66370	267.73679	-368.57806	367.91736	263.37341	-307.93039	408.77136	255.52609	-316.29391	364.39337	253.59407	-343.18307	96.27290	290.32724	-306.34476	110.46490	381.15823	-397.35172	59.13506	348.99716	-234.68240	39.94192	247.70259	-156.92390	58.03300	309.78485	-192.69669	45.51637	359.42810	-378.05490	1032.46558	526.05481	-220.81334	997.72534	612.33514	-321.89297	651.85687	673.88397	-319.52048	607.77136	673.43011	-259.21701	647.30878	668.47552	-267.12729	604.87299	669.49054	-299.76697	518.53406	664.30151	-321.43143	490.05896	553.02014	-369.09366	413.19650	687.99146	-363.80786	367.11380	690.51349	-306.85806	412.16287	684.89758	-310.84045	365.23926	690.45074	-339.53763	97.85926	667.24323	-311.35535	105.65602	572.66498	-400.29407	59.58472	615.12341	-184.40021	49.60100	597.77765	-181.52629	62.09519	647.92871	-223.03223	39.01336	708.30078
272	2.25833	-379.94556	1019.39966	442.52045	-201.64114	1005.43774	378.05917	-332.20892	635.78210	298.64526	-331.00821	588.24261	293.61539	-272.88306	632.92328	284.87100	-279.66385	586.70270	284.93695	-310.83353	515.24841	280.29047	-293.14990	501.21063	388.77802	-368.67868	412.71411	267.82870	-368.55493	367.97830	263.43671	-307.86203	408.81985	255.57397	-316.23251	364.42432	253.62662	-343.15536	96.29250	290.34021	-306.31201	110.45539	381.14398	-396.44833	58.92653	349.28751	-234.60164	40.05519	247.59122	-156.90019	58.02170	309.77420	-192.68066	45.51291	359.43436	-377.84659	1032.48962	526.01477	-220.67868	997.73639	612.48114	-321.96637	651.86023	673.89929	-319.60339	607.80225	673.43274	-259.25671	647.30573	668.58356	-267.18628	604.88391	669.58728	-299.85455	518.53693	664.34863	-321.43393	490.07758	553.04248	-369.21661	413.20038	687.96442	-363.87015	367.12311	690.51935	-306.93408	412.18292	684.94080	-310.90311	365.26584	690.48108	-339.48853	97.84977	667.23547	-311.35645	105.66699	572.66132	-400.22455	59.59466	615.09302	-184.39473	49.59241	597.79572	-181.49141	62.10271	647.94635	-223.00272	39.01700	708.31152
273	2.26667	-379.60190	1019.45789	442.51642	-201.27277	1005.37372	378.21124	-331.62888	635.78363	298.84094	-330.81631	588.26910	293.67184	-272.71136	632.94739	284.93881	-279.46671	586.71881	284.99750	-310.69431	515.31232	280.33051	-292.96817	501.22543	388.85947	-368.61649	412.81094	267.91174	-368.47641	368.04755	263.48462	-307.76373	408.83789	255.64671	-316.14008	364.49930	253.68588	-343.12448	96.32490	290.31760	-306.30435	110.47074	381.15521	-397.34137	59.20755	348.99063	-234.61209	40.10181	247.58353	-156.91249	58.00860	309.78174	-192.65157	45.55461	359.43631	-377.61600	1032.57434	525.96027	-220.57407	997.74615	612.61267	-321.99094	651.91693	673.93585	-319.64896	607.85162	673.43640	-259.31485	647.32153	668.68048	-267.22687	604.89246	669.66669	-299.91571	518.55383	664.38196	-321.40503	490.14459	553.03345	-369.26501	413.22290	687.96936	-363.93063	367.18143	690.49512	-307.00681	412.24280	684.95624	-310.95743	365.30936	690.50122	-339.46768	97.90747	667.21307	-311.31183	105.71010	572.63922	-400.27274	59.71442	615.08630	-184.39238	49.58800	597.79669	-181.49168	62.11571	647.94781	-222.98170	39.04847	708.30200
274	2.27500	-379.35349	1019.54242	442.50308	-200.88112	1005.33099	378.35553	-331.43808	635.83746	298.92181	-330.66113	588.31384	293.74445	-272.54105	632.95508	285.00412	-279.28003	586.73041	285.05673	-310.55475	515.35736	280.37964	-292.79327	501.21939	388.91049	-368.56732	412.86780	267.99188	-368.42880	368.13669	263.53696	-307.61758	408.88065	255.72998	-316.01553	364.55310	253.73933	-343.11258	96.39512	290.31198	-306.27896	110.46156	381.15314	-397.31525	59.27634	348.99408	-234.59912	40.12930	247.56450	-156.90562	57.99792	309.78156	-192.68092	45.54618	359.42737	-377.35376	1032.62976	525.89954	-220.45050	997.73590	612.72296	-321.96466	651.95569	673.96332	-319.62988	607.86115	673.45990	-259.29868	647.29150	668.73499	-267.24393	604.88953	669.72046	-299.98123	518.54889	664.40619	-321.34799	490.20465	553.02856	-369.29077	413.25266	687.97131	-363.92215	367.23361	690.48621	-307.08441	412.24756	684.96429	-310.97845	365.32581	690.50330	-339.46466	97.92392	667.17456	-311.28458	105.74609	572.62506	-400.24899	59.77775	615.06207	-184.38014	49.60675	597.79767	-181.49409	62.09300	647.94543	-222.98817	39.06434	708.28961
275	2.28333	-379.07489	1019.62915	442.49329	-200.45711	1005.32733	378.51099	-331.21329	635.90161	299.00223	-330.47095	588.38519	293.82724	-272.35059	632.99353	285.04788	-279.08542	586.76837	285.11331	-310.37943	515.41650	280.44580	-292.54181	501.26016	388.96826	-368.38763	412.92685	268.00842	-368.31738	368.19708	263.57031	-307.50858	408.91489	255.80304	-315.90018	364.64435	253.79074	-343.09177	96.43799	290.30841	-306.23294	110.50766	381.14731	-397.28192	59.34400	348.99133	-234.55069	40.18342	247.55421	-156.88304	58.02052	309.76837	-192.63742	45.58760	359.42950	-377.04922	1032.70044	525.91077	-220.21475	997.79688	612.80164	-321.84793	652.00415	674.01587	-319.53256	607.91730	673.50342	-259.16571	647.35590	668.77136	-267.13605	604.93097	669.77203	-299.90213	518.60779	664.42560	-321.30319	490.28271	553.06323	-369.22366	413.30038	688.00684	-363.84821	367.29532	690.49805	-307.00894	412.31601	684.98187	-310.94525	365.37646	690.50433	-339.37881	97.97166	667.17371	-311.25531	105.78664	572.62885	-400.16681	59.85241	615.05463	-184.35818	49.63105	597.79071	-181.47054	62.09510	647.93726	-222.92761	39.11106	708.27228
